<svg width="24" height="14" viewBox="0 0 24 14" fill="none" xmlns="http://www.w3.org/2000/svg">
<path d="M0.779359 13.0718C0.538959 13.0718 0.336918 12.9899 0.173234 12.8262C0.0095677 12.6626 -0.0722656 12.4605 -0.0722656 12.2201V11.675C-0.0722656 10.9956 0.278451 10.4513 0.979884 10.0421C1.68133 9.63287 2.60453 9.42827 3.74946 9.42827C3.92326 9.42827 4.09586 9.43353 4.26726 9.44405C4.43866 9.45455 4.60356 9.46831 4.76196 9.48535C4.62464 9.78063 4.51966 10.085 4.44701 10.3984C4.37436 10.7119 4.33803 11.0457 4.33803 11.4V13.0718H0.779359ZM6.77936 13.0718C6.53896 13.0718 6.33692 12.9899 6.17323 12.8262C6.00955 12.6626 5.92771 12.4605 5.92771 12.2201V11.4C5.92771 10.2923 6.48757 9.39506 7.60728 8.70835C8.72698 8.02163 10.1908 7.67827 11.9986 7.67827C13.8199 7.67827 15.2873 8.02163 16.4009 8.70835C17.5144 9.39506 18.0712 10.2923 18.0712 11.4V12.2201C18.0712 12.4605 17.9894 12.6626 17.8257 12.8262C17.662 12.9899 17.46 13.0718 17.2196 13.0718H6.77936ZM19.6609 13.0718V11.3974C19.6609 11.0462 19.6256 10.7125 19.5549 10.3964C19.4842 10.0803 19.3783 9.77437 19.237 9.47852C19.3954 9.45771 19.5603 9.44413 19.7317 9.4378C19.9031 9.43145 20.0763 9.42827 20.2515 9.42827C21.3867 9.42827 22.3072 9.63287 23.0128 10.0421C23.7184 10.4513 24.0712 10.9956 24.0712 11.675V12.2201C24.0712 12.4605 23.9894 12.6626 23.8257 12.8262C23.662 12.9899 23.46 13.0718 23.2196 13.0718H19.6609ZM3.74798 8.69622C3.24968 8.69622 2.82672 8.52084 2.47908 8.17007C2.13143 7.8193 1.95761 7.39467 1.95761 6.89617C1.95761 6.40236 2.13251 5.98063 2.48231 5.631C2.83209 5.28136 3.25555 5.10655 3.75268 5.10655C4.24982 5.10655 4.6732 5.2821 5.02283 5.63322C5.37247 5.98432 5.54728 6.40778 5.54728 6.9036C5.54728 7.3994 5.37198 7.82212 5.02136 8.17177C4.67074 8.5214 4.24628 8.69622 3.74798 8.69622ZM20.248 8.69622C19.7497 8.69622 19.3267 8.52084 18.9791 8.17007C18.6314 7.8193 18.4576 7.39467 18.4576 6.89617C18.4576 6.40236 18.6325 5.98063 18.9823 5.631C19.3321 5.28136 19.7556 5.10655 20.2527 5.10655C20.7498 5.10655 21.1732 5.2821 21.5228 5.63322C21.8725 5.98432 22.0473 6.40778 22.0473 6.9036C22.0473 7.3994 21.872 7.82212 21.5214 8.17177C21.1707 8.5214 20.7463 8.69622 20.248 8.69622ZM11.9995 6.93427C11.1462 6.93427 10.4209 6.63563 9.82363 6.03835C9.22635 5.44106 8.92771 4.71579 8.92771 3.86252C8.92771 3.00925 9.22635 2.28398 9.82363 1.6867C10.4209 1.08941 11.1462 0.790771 11.9995 0.790771C12.8527 0.790771 13.578 1.08941 14.1753 1.6867C14.7726 2.28398 15.0712 3.00925 15.0712 3.86252C15.0712 4.71579 14.7726 5.44106 14.1753 6.03835C13.578 6.63563 12.8527 6.93427 11.9995 6.93427Z" fill="white"/>
</svg>
