<svg width="19" height="24" viewBox="0 0 19 24" fill="none" xmlns="http://www.w3.org/2000/svg">
<path d="M3.96194 17.4032C2.9756 17.4032 2.13967 17.0618 1.45412 16.379C0.768561 15.6961 0.425781 14.8606 0.425781 13.8725C0.425781 12.8844 0.767201 12.0489 1.45004 11.3661C2.13287 10.6833 2.96834 10.3419 3.95646 10.3419C4.36662 10.3419 4.73611 10.3984 5.06492 10.5115C5.39373 10.6246 5.68068 10.7808 5.92578 10.98V2.15763C5.92578 1.72293 6.07825 1.35313 6.38317 1.04821C6.6881 0.743285 7.05791 0.59082 7.49259 0.59082H9.94468C10.398 0.59082 10.7828 0.748914 11.099 1.0651C11.4152 1.38128 11.5733 1.76725 11.5733 2.22304C11.5733 2.67882 11.4152 3.06832 11.099 3.39154C10.7828 3.71477 10.398 3.87638 9.94468 3.87638H7.49259V13.8725C7.49259 14.8606 7.15118 15.6961 6.46836 16.379C5.78553 17.0618 4.95006 17.4032 3.96194 17.4032Z" fill="black"/>
<path d="M12.519 23.1115C11.8017 23.1115 11.1937 22.8632 10.6951 22.3666C10.1966 21.8699 9.94727 21.2623 9.94727 20.5437C9.94727 19.8251 10.1956 19.2175 10.6922 18.7208C11.1888 18.2242 11.7964 17.9759 12.515 17.9759C12.8133 17.9759 13.082 18.0171 13.3212 18.0993C13.5603 18.1816 13.769 18.2952 13.9473 18.4401V12.0238C13.9473 11.7076 14.0581 11.4387 14.2799 11.2169C14.5017 10.9952 14.7706 10.8843 15.0868 10.8843H16.8701C17.1998 10.8843 17.4796 10.9993 17.7096 11.2292C17.9396 11.4592 18.0545 11.7399 18.0545 12.0713C18.0545 12.4028 17.9396 12.6861 17.7096 12.9212C17.4796 13.1562 17.1998 13.2738 16.8701 13.2738H15.0868V20.5437C15.0868 21.2623 14.8385 21.8699 14.3419 22.3666C13.8453 22.8632 13.2376 23.1115 12.519 23.1115Z" fill="black"/>
</svg>
