<svg width="20" height="18" viewBox="0 0 20 18" fill="none" xmlns="http://www.w3.org/2000/svg">
<path d="M2.8759 2.67501C2.6355 2.67501 2.43346 2.59275 2.26978 2.42823C2.10611 2.26372 2.02428 2.06063 2.02428 1.81898C2.02428 1.57735 2.10611 1.37473 2.26978 1.21113C2.43346 1.04755 2.6355 0.965759 2.8759 0.965759H17.1759C17.4163 0.965759 17.6183 1.04902 17.782 1.21553C17.9457 1.38205 18.0275 1.58613 18.0275 1.82776C18.0275 2.06941 17.9457 2.27103 17.782 2.43261C17.6183 2.59421 17.4163 2.67501 17.1759 2.67501H2.8759ZM3.0009 17.0533C2.7605 17.0533 2.55846 16.9714 2.39478 16.8078C2.23111 16.6441 2.14928 16.442 2.14928 16.2016V10.9283H1.54818C1.28463 10.9163 1.07245 10.8067 0.911651 10.5995C0.750851 10.3922 0.699442 10.16 0.757426 9.90273L1.87535 4.85273C1.91267 4.64947 2.01004 4.4857 2.16748 4.36143C2.32491 4.23715 2.50308 4.17501 2.70198 4.17501H17.3248C17.5237 4.17501 17.7019 4.23715 17.8593 4.36143C18.0168 4.4857 18.1141 4.64947 18.1515 4.85273L19.2694 9.90273C19.3274 10.164 19.275 10.4002 19.1122 10.6114C18.9494 10.8227 18.7402 10.9283 18.4846 10.9283H17.8775V16.2016C17.8775 16.442 17.7953 16.6441 17.6308 16.8078C17.4662 16.9714 17.2632 17.0533 17.0215 17.0533C16.7799 17.0533 16.5783 16.9714 16.4167 16.8078C16.2551 16.6441 16.1743 16.442 16.1743 16.2016V10.9283H11.9025V16.2016C11.9025 16.442 11.8207 16.6441 11.657 16.8078C11.4933 16.9714 11.2913 17.0533 11.0509 17.0533H3.0009ZM3.85253 15.35H10.1993V10.9283H3.85253V15.35Z" fill="black"/>
</svg>
