<svg width="17" height="23" viewBox="0 0 17 23" fill="none" xmlns="http://www.w3.org/2000/svg">
<path d="M8.37595 13.6849C7.48403 13.6849 6.73753 13.3657 6.13645 12.7273C5.53536 12.089 5.23482 11.3125 5.23482 10.3979V3.11194C5.23482 2.25061 5.53965 1.51662 6.14931 0.90997C6.75899 0.303323 7.50063 0 8.37423 0C9.24785 0 9.99122 0.303323 10.6043 0.90997C11.2175 1.51662 11.5241 2.25061 11.5241 3.11194V10.3979C11.5241 11.3125 11.2223 12.089 10.6189 12.7273C10.0155 13.3657 9.26787 13.6849 8.37595 13.6849ZM8.37085 22.6061C8.10286 22.6061 7.87809 22.5141 7.69654 22.3301C7.51501 22.1461 7.42424 21.9185 7.42424 21.6474V18.6115C5.47217 18.3976 3.8065 17.6205 2.4272 16.2801C1.04793 14.9397 0.242047 13.3249 0.00954951 11.4359C-0.0293394 11.1598 0.0505484 10.9178 0.249212 10.7099C0.447896 10.5019 0.699623 10.3979 1.0044 10.3979C1.21786 10.3979 1.41177 10.4792 1.58612 10.6417C1.7605 10.8042 1.86946 11.0017 1.913 11.2342C2.13618 12.8278 2.85072 14.1506 4.05663 15.2025C5.26252 16.2544 6.70056 16.7803 8.37076 16.7803C10.0409 16.7803 11.4807 16.2544 12.6901 15.2025C13.8994 14.1506 14.6157 12.8278 14.8389 11.2342C14.887 10.9969 14.9992 10.7982 15.1752 10.6381C15.3513 10.478 15.5501 10.3979 15.7717 10.3979C16.0752 10.3979 16.3225 10.5019 16.5138 10.7099C16.705 10.9178 16.7812 11.1598 16.7423 11.4359C16.5099 13.3249 15.704 14.9397 14.3247 16.2801C12.9454 17.6205 11.2797 18.3976 9.32766 18.6115V21.6474C9.32766 21.9185 9.23518 22.1461 9.05023 22.3301C8.86527 22.5141 8.63881 22.6061 8.37085 22.6061Z" fill="#000000"/>
</svg>
