<svg width="18" height="22" viewBox="0 0 18 22" fill="none" xmlns="http://www.w3.org/2000/svg">
<path d="M9.97719 13.8523C9.61266 14.2212 9.10762 13.5926 9.46983 13.2267C10.4119 12.2741 11.7866 11.7243 13.2328 11.4754C13.1632 11.2006 13.093 10.9286 13.0212 10.6624C11.5858 10.8571 10.2003 11.3582 9.27289 12.2959C8.90808 12.6645 8.40318 12.0358 8.76524 11.6699C9.76675 10.6575 11.258 10.1008 12.8033 9.87592C12.7242 9.60014 12.6445 9.33261 12.5646 9.07463C11.0423 9.24363 9.54906 9.74752 8.56831 10.7392C8.20349 11.108 7.69859 10.4793 8.06061 10.1134C9.10766 9.05499 10.6894 8.49247 12.3094 8.28864C12.2137 8.00784 12.1178 7.74465 12.023 7.50178C10.4448 7.65181 8.87932 8.15531 7.86353 9.18186C7.49881 9.55053 6.99381 8.92195 7.35597 8.55608C8.42045 7.47973 10.0371 6.91764 11.6857 6.72283C11.5621 6.45665 11.437 6.19713 11.3106 5.94562C9.7349 6.09676 8.17285 6.59983 7.15865 7.62498C6.79384 7.99346 6.28884 7.36507 6.651 6.999C7.69893 5.93944 9.28187 5.37741 10.9037 5.17386C10.7563 4.90681 10.6064 4.65038 10.4556 4.40312C8.93119 4.57129 7.43545 5.07552 6.45407 6.06785C6.08925 6.43653 5.58435 5.80814 5.94642 5.44207C6.94454 4.43289 8.42875 3.87684 9.96908 3.65032C8.3459 1.2768 6.54262 0 4.72805 0C4.17233 0 3.6186 0.122618 3.08295 0.365057C1.6732 1.00343 0.83022 2.27696 0.644772 4.04834C0.444992 5.95537 1.00949 8.44402 2.27751 11.2441C3.59008 14.1452 8.33234 20.3886 10.2348 22L14.6834 19.9871C14.6944 18.5292 14.1466 15.283 13.426 12.2642C12.0992 12.4851 10.8399 12.9803 9.97719 13.8523Z" fill="white"/>
<path d="M16.3178 12.1768L16.1006 11.3493L15.9192 10.6571L15.6995 9.81907L15.5232 9.14542L15.3008 8.29843L15.1258 7.63086L14.905 6.7885L14.6915 5.97486L14.5147 5.29966L13.659 2.03693C13.5794 1.7334 13.269 1.55335 12.9654 1.63153C12.6615 1.71101 12.4799 2.02178 12.5599 2.3255L12.8921 3.59285L13.1118 4.43076L13.2932 5.12246L13.5107 5.95102L13.696 6.65744L13.9128 7.48339L14.1023 8.20491L14.316 9.02145L14.5084 9.75591L14.7215 10.5678L14.918 11.3171L15.1296 12.1237L16.2753 16.492C16.3423 16.7476 16.5723 16.9159 16.8248 16.9159C16.8723 16.9159 16.9209 16.9101 16.969 16.8973C17.2726 16.8182 17.4544 16.5075 17.3743 16.2034L16.3178 12.1768Z" fill="white"/>
</svg>
