<svg width="22" height="22" viewBox="0 0 22 22" fill="none" xmlns="http://www.w3.org/2000/svg">
<path d="M7.19363 8.01612C6.90995 7.97019 6.63477 7.91901 6.36914 7.86328L9.07583 14.9723L10.4343 8.30113C9.27881 8.27651 8.1841 8.17717 7.19363 8.01612Z" fill="white"/>
<path d="M9.6582 15.2695C10.0796 15.3145 10.5306 15.3397 11.0006 15.3397C11.4702 15.3397 11.9215 15.3148 12.3429 15.2695L11.0002 8.67676L9.6582 15.2695Z" fill="white"/>
<path d="M12.9249 14.9723L15.6322 7.8623C14.4377 8.11316 13.0534 8.26862 11.5664 8.30076L12.9249 14.9723Z" fill="white"/>
<path d="M19.7864 2.46039C19.6562 2.25118 19.4831 2.06392 19.2768 1.89174C18.9154 1.591 18.4507 1.3319 17.898 1.10232C17.0686 0.759902 16.0394 0.486406 14.8683 0.296184C13.6974 0.105961 12.3862 0 11.0006 0C9.79361 0 8.64346 0.0803516 7.59331 0.22666C6.80586 0.336188 6.07484 0.483098 5.41724 0.661547C4.43107 0.930488 3.61213 1.26663 3.00798 1.67789C2.7063 1.88452 2.45639 2.11114 2.27305 2.37188C2.18152 2.50207 2.1074 2.64146 2.05593 2.7897C2.00445 2.9376 1.97656 3.09435 1.97656 3.25278C1.97622 4.99267 2.24615 6.48489 2.65152 7.7715C3.25957 9.70221 4.17098 11.1696 4.91154 12.3312C5.28185 12.911 5.60845 13.4154 5.83314 13.8517C5.94597 14.0691 6.03251 14.2695 6.08927 14.4499C6.14664 14.6309 6.17388 14.791 6.17388 14.9349C6.17388 15.6692 6.09288 16.4003 5.98761 17.1707C5.88199 17.9414 5.7518 18.7504 5.65967 19.6366V19.6363C5.65048 19.7242 5.64588 19.8111 5.64588 19.8974C5.64622 20.2306 5.71476 20.554 5.88075 20.8347C5.96368 20.9744 6.07161 21.1017 6.20344 21.2059C6.33497 21.3102 6.4891 21.3909 6.65801 21.4408C7.50179 21.6933 8.95078 22 11.0006 22C13.05 22 14.499 21.6933 15.3429 21.4408C15.5117 21.391 15.6659 21.3103 15.7974 21.206C15.9955 21.0496 16.1381 20.8419 16.2267 20.617C16.3159 20.391 16.3546 20.1476 16.3546 19.8974C16.3546 19.8115 16.3503 19.7242 16.3411 19.6367C16.249 18.7505 16.1188 17.9414 16.0132 17.1707C15.9079 16.4003 15.8269 15.6693 15.8269 14.9349C15.8269 14.7431 15.8758 14.5214 15.9781 14.263C16.1552 13.811 16.4943 13.2617 16.9082 12.6152C17.5281 11.6432 18.3093 10.4454 18.9341 8.91907C19.5589 7.39303 20.0249 5.53605 20.0242 3.25278C20.0249 2.97009 19.9347 2.69784 19.7864 2.46039ZM18.7753 6.71052C18.3316 7.00176 17.7717 7.25429 17.1122 7.47205C17.0121 7.50484 16.9095 7.53698 16.8049 7.56847C16.8121 7.59408 16.8183 7.61961 16.8222 7.6465C16.8226 7.64719 16.8537 7.86294 16.9023 8.19487C16.9508 8.52676 17.0158 8.9748 17.0836 9.43718C17.1351 9.79172 17.1879 10.1528 17.2355 10.4792C17.065 10.7793 16.8934 11.0636 16.7245 11.3355C16.6071 10.5336 16.3448 8.73503 16.2421 8.02991L13.5639 15.0628C13.8631 14.99 14.1284 14.9057 14.3488 14.8142C14.5951 14.7128 14.7849 14.6013 14.9021 14.5029C14.969 14.4472 15.0119 14.3963 15.0343 14.3599C15.0602 14.3173 15.0615 14.2986 15.0621 14.2842H15.0864C15.0254 14.4983 14.988 14.7148 14.988 14.9349C14.988 15.1028 14.9922 15.2701 14.9994 15.4364C14.7049 15.5918 14.3566 15.7197 13.9611 15.8279C13.6092 15.9234 13.2202 16.0011 12.8028 16.0595C12.2459 16.1369 11.6378 16.1795 11.0006 16.1795C10.2682 16.1795 9.57524 16.1235 8.95374 16.0228C8.33194 15.9218 7.78259 15.7765 7.33098 15.5898C7.21394 15.5413 7.10506 15.4889 7.00141 15.4337C7.00863 15.2684 7.01319 15.1025 7.01319 14.9349C7.01319 14.7148 6.97649 14.499 6.91548 14.2842H6.93877C6.93877 14.293 6.9398 14.3012 6.9447 14.316C6.94998 14.3305 6.95948 14.3501 6.97752 14.3764C7.01327 14.4282 7.08606 14.5013 7.19791 14.5771C7.42057 14.7312 7.79221 14.8916 8.25984 15.0178C8.3166 15.0329 8.37663 15.048 8.43661 15.0621L5.75876 8.02987C5.65611 8.73499 5.39374 10.5336 5.27635 11.3355C5.1074 11.0636 4.93591 10.7786 4.76536 10.4788C4.87554 9.72645 5.01299 8.78058 5.09859 8.19483C5.1468 7.86294 5.17829 7.64715 5.17859 7.64646C5.1822 7.61956 5.18843 7.59335 5.196 7.56774C4.84572 7.46346 4.51971 7.34903 4.22129 7.22537C3.84411 7.06926 3.51123 6.89872 3.22657 6.71176C3.14656 6.38907 3.07639 6.05387 3.01735 5.70492C3.1026 5.81251 3.21578 5.92367 3.35809 6.03419C3.74447 6.33591 4.33873 6.62849 5.08552 6.87414C6.58041 7.36673 8.68098 7.67895 11.0007 7.6783C12.3329 7.6783 13.5923 7.57599 14.7064 7.39531C15.8208 7.21428 16.7903 6.95385 17.5387 6.64426C18.0376 6.43766 18.4374 6.20873 18.7131 5.97786C18.824 5.88539 18.9139 5.79287 18.9844 5.70363C18.9255 6.05262 18.8553 6.38782 18.7753 6.71052ZM4.11555 5.80598C4.11555 5.59973 4.28313 5.43241 4.48942 5.43241C4.69601 5.43241 4.86333 5.59969 4.86333 5.80598C4.86333 6.01262 4.69605 6.17989 4.48942 6.17989C4.28313 6.17989 4.11555 6.01262 4.11555 5.80598ZM10.6267 6.79645C10.6267 6.59016 10.7939 6.42258 11.0006 6.42258C11.2068 6.42258 11.3741 6.59016 11.3741 6.79645C11.3741 7.00275 11.2069 7.17032 11.0006 7.17032C10.7939 7.17032 10.6267 7.00275 10.6267 6.79645ZM17.1378 5.56132C17.1378 5.35472 17.3047 5.18745 17.5114 5.18745C17.7176 5.18745 17.8852 5.35472 17.8852 5.56132C17.8852 5.76795 17.7176 5.93523 17.5114 5.93523C17.3047 5.93523 17.1378 5.76795 17.1378 5.56132ZM19.1712 3.90118C19.1338 3.93332 19.0973 3.96546 19.057 3.99657C18.5926 4.35768 17.9436 4.6686 17.1502 4.93062C15.5635 5.45273 13.3957 5.77057 11.0006 5.77083C9.42893 5.77083 7.95442 5.63342 6.67859 5.39202C5.4025 5.14998 4.32579 4.80563 3.54196 4.38157C3.26747 4.23234 3.02968 4.07361 2.83057 3.90272C2.8224 3.70038 2.81682 3.49443 2.81617 3.28389C2.91156 3.41047 3.03918 3.53938 3.20152 3.66528C3.60753 3.98213 4.21854 4.28089 4.98205 4.53213C6.50938 5.03555 8.64377 5.35137 11.0006 5.35137C12.5472 5.35137 13.9975 5.21559 15.2441 4.97948C16.4904 4.74401 17.5337 4.40619 18.2588 4.01264C18.6865 3.78177 19 3.53087 19.1846 3.28586C19.184 3.49482 19.1797 3.69978 19.1712 3.90118Z" fill="white"/>
</svg>
