<svg width="23" height="22" viewBox="0 0 23 22" fill="none" xmlns="http://www.w3.org/2000/svg">
<path d="M15.2522 0.484223C15.1171 0.651659 15.146 0.726834 15.3629 0.779555C15.4258 0.79499 15.4787 0.808133 15.4782 0.810129C15.4797 0.812583 15.243 1.03062 15.2414 1.02817C15.2407 1.02694 15.2397 1.00561 15.2376 0.979825C15.233 0.921815 15.1805 0.805379 15.1358 0.755085C15.1065 0.724113 15.0897 0.719219 15.0423 0.726329C14.9393 0.743935 14.8112 0.88343 14.8211 0.966913C14.828 1.02016 14.9035 1.07012 15.0313 1.10145C15.0862 1.11505 15.1306 1.12835 15.1296 1.13235C15.1278 1.13511 15.07 1.19257 14.9987 1.26171C14.8828 1.37342 14.8325 1.40938 14.8545 1.36378C14.867 1.33921 14.827 1.22353 14.7825 1.15113C14.7517 1.10082 14.7341 1.08626 14.692 1.07663C14.6438 1.06563 14.6343 1.06979 14.5642 1.12128C14.4791 1.18199 14.4229 1.27568 14.4357 1.3303C14.4466 1.37603 14.5461 1.43148 14.6582 1.45392C14.7128 1.4643 14.7584 1.47684 14.7615 1.48175C14.7645 1.48666 14.7199 1.53766 14.6621 1.59512C14.6056 1.65182 14.554 1.70543 14.548 1.7125C14.5403 1.72233 14.5282 1.7027 14.5098 1.6447C14.4691 1.51935 14.4292 1.46276 14.3692 1.44379C14.3249 1.43049 14.3101 1.43449 14.25 1.47139C14.1694 1.52259 14.1021 1.61797 14.1059 1.67475C14.108 1.7343 14.172 1.77951 14.3013 1.81329C14.3623 1.82827 14.4114 1.84372 14.4109 1.84571C14.4112 1.84894 14.3591 1.90455 14.2973 1.96954C14.1852 2.08738 14.1512 2.10491 14.1626 2.04212C14.1695 1.9973 14.113 1.84618 14.072 1.80202C14.0196 1.74468 13.9702 1.74289 13.8884 1.79485C13.7814 1.86219 13.7195 1.9746 13.7564 2.03473C13.7812 2.07522 13.8931 2.1282 13.9836 2.14361C14.1026 2.16344 14.1016 2.17587 13.967 2.31599C13.9022 2.38451 13.8442 2.43875 13.8374 2.43614C13.8314 2.43477 13.8266 2.41574 13.828 2.39287C13.8295 2.3278 13.7643 2.17684 13.7152 2.13607C13.666 2.09529 13.6299 2.09548 13.5598 2.13853C13.4421 2.21079 13.3814 2.32244 13.4228 2.38992C13.4477 2.43042 13.6393 2.51217 13.6809 2.49847C13.6944 2.49523 13.7167 2.5035 13.7302 2.51714C13.7541 2.54474 13.7548 2.54597 13.6452 2.65383C13.5729 2.72696 13.5105 2.87514 13.5119 2.97566C13.5127 3.05286 13.554 3.14245 13.6197 3.21022C13.6476 3.23874 13.6476 3.24718 13.6203 3.30108C13.6038 3.33318 13.5924 3.37064 13.5966 3.38322C13.6009 3.3958 13.5287 3.56179 13.4373 3.74974C13.3466 3.93893 13.2067 4.22762 13.1272 4.393C13.0483 4.55639 12.9753 4.70426 12.9655 4.72208C12.9571 4.73912 12.9033 4.84815 12.8476 4.96516C12.5523 5.58753 12.3924 5.91384 12.3774 5.92307C12.3673 5.92922 12.3593 5.94427 12.3604 5.95716C12.3614 5.97005 12.2497 6.20929 12.1138 6.49046C11.9779 6.77162 11.8302 7.07858 11.784 7.17456C11.739 7.26976 11.6448 7.46448 11.5753 7.60683C11.5066 7.7504 11.4174 7.9336 11.378 8.01529C11.3385 8.09698 11.234 8.31151 11.1478 8.49117C11.0624 8.67206 10.9844 8.82301 10.9769 8.82763C10.9694 8.83224 10.9594 8.85527 10.9527 8.87799C10.9467 8.90194 10.9 9.00835 10.8475 9.11661C10.7703 9.27723 10.4805 9.86921 10.4347 9.96318C10.4222 9.98775 10.3638 10.1115 10.2126 10.4325C10.1704 10.5209 10.1337 10.5958 10.1312 10.5974C10.1274 10.5997 10.0957 10.6631 10.0617 10.7397C9.98999 10.8953 9.99675 10.8894 9.76208 10.9845C9.52742 11.0796 9.38586 11.099 9.24222 11.0588C9.11662 11.0227 9.05315 10.967 8.95444 10.8063C8.86101 10.6541 8.82225 10.5377 8.81352 10.3859C8.80633 10.2619 8.82997 10.146 8.94868 9.73853C9.00703 9.53879 9.01498 9.48997 9.00707 9.39006C8.98134 9.08989 8.79264 8.9033 8.5052 8.89562C8.36236 8.8904 8.23687 8.93029 8.11146 9.02082C7.64308 9.35575 7.34488 9.89202 7.19813 10.6665C7.17151 10.8028 7.11415 11.181 7.07025 11.5054C6.99412 12.0692 6.93048 12.4344 6.89253 12.5354C6.86757 12.6014 6.76555 12.7553 6.68849 12.8432C6.52437 13.0335 6.35318 13.1843 6.03052 13.4281C5.37818 13.9182 4.87519 14.4129 4.51781 14.9146C4.31223 15.203 4.23003 15.3752 4.19276 15.6008C4.07273 16.3149 4.29524 17.0198 4.80996 17.5604C5.03406 17.7962 5.36065 18.0249 5.87575 18.305C7.36714 19.1195 8.68509 19.5505 9.43874 19.4696C9.71084 19.441 9.94426 19.3551 10.2389 19.1725C10.4518 19.0418 10.5521 18.9582 10.6995 18.7883C10.8624 18.5987 11.0408 18.283 11.1339 18.0163C11.3029 17.5307 11.4149 16.7894 11.4008 16.2387C11.388 15.6873 11.532 15.2508 11.8781 14.7898C12.0099 14.6143 12.1483 14.4634 12.5194 14.0851C12.8352 13.7628 12.923 13.6616 13.0233 13.502C13.194 13.2299 13.2375 12.975 13.1527 12.7331C13.119 12.6389 12.9992 12.4438 12.9192 12.3527C12.8413 12.2653 12.7699 12.2416 12.6306 12.2562C12.4241 12.2765 12.298 12.3573 12.063 12.6148C11.9477 12.7414 11.9206 12.7648 11.7854 12.8478C11.661 12.9259 11.6192 12.9448 11.5385 12.9622C11.3599 13.0026 11.2048 12.983 11.0428 12.9017C10.945 12.8519 10.7731 12.7124 10.7558 12.6673C10.7477 12.6486 10.8261 12.4534 10.9925 12.0759C11.1294 11.7654 11.2485 11.4962 11.2575 11.4772C11.2665 11.4581 11.3287 11.3152 11.3959 11.1607C11.4623 11.005 11.5236 10.8745 11.5298 10.8706C11.5361 10.8668 11.5493 10.835 11.559 10.8003C11.5725 10.7549 12.0338 9.6926 12.1715 9.39178C12.2005 9.32668 12.3583 8.96614 12.4038 8.8605C12.4258 8.80645 12.476 8.69451 12.5127 8.61113C12.5507 8.52698 12.7775 8.00921 13.0188 7.45888C13.2596 6.91055 13.4669 6.45372 13.4819 6.4445C13.4957 6.43604 13.5024 6.42176 13.4964 6.41195C13.4859 6.39477 13.7179 5.84337 13.7404 5.82954C13.7467 5.82569 13.7527 5.81019 13.7554 5.79499C13.7594 5.77058 13.9732 5.27093 14.0114 5.19845C14.0182 5.18417 14.0844 5.03369 14.1588 4.86294C14.2332 4.69219 14.2987 4.54048 14.3062 4.52743C14.3129 4.51315 14.3841 4.35115 14.464 4.16689C14.5577 3.94885 14.6159 3.8303 14.6292 3.83228C14.6558 3.83624 14.713 3.70481 14.6956 3.67658C14.6851 3.6594 14.6994 3.64895 14.8296 3.57745C14.9655 3.50409 15.1401 3.43745 15.3743 3.36967L15.4725 3.34148L15.5347 3.22385C15.6337 3.03128 15.7047 2.75955 15.7815 2.28659C15.8036 2.14291 15.8406 1.93936 15.8613 1.83543L15.9001 1.646L15.9387 1.66959C16.0802 1.75677 16.3465 1.68788 16.5028 1.52426C16.6217 1.40058 16.6716 1.26854 16.6564 1.11738C16.648 1.03635 16.6385 1.01518 16.5526 0.875296C16.4154 0.651974 16.2857 0.538996 16.123 0.498649C15.9939 0.46809 15.9518 0.475348 15.8091 0.562983C15.7403 0.605263 15.6632 0.659369 15.6381 0.683185L15.5911 0.727284L15.5868 0.672496C15.5842 0.640268 15.5601 0.575678 15.5271 0.51647C15.4779 0.425048 15.4679 0.414315 15.4313 0.408061C15.3907 0.40089 15.2815 0.447663 15.2522 0.484223Z" fill="white"/>
</svg>
