<svg width="16" height="22" viewBox="0 0 16 22" fill="none" xmlns="http://www.w3.org/2000/svg">
<path d="M11.7212 0C13.5923 0 15.1086 1.51667 15.1086 3.38745C15.1086 5.25818 13.5923 6.77469 11.7212 6.77469C9.8507 6.77469 8.33398 5.25818 8.33398 3.38745C8.33393 1.51667 9.85065 0 11.7212 0Z" fill="white"/>
<path d="M4.39032 12.7589C4.67286 12.7589 4.92357 12.6316 5.09571 12.4341L10.7974 7.18385C9.6657 6.90926 8.72611 6.14126 8.21991 5.12109L3.71556 11.117C3.54955 11.3488 3.45117 11.5509 3.45117 11.8193C3.45117 12.338 3.87213 12.7589 4.39032 12.7589Z" fill="white"/>
<path d="M1.64932 17.8052C3.54407 19.2611 6.45675 16.5033 6.56557 16.3981C6.59685 16.3708 9.66903 13.6659 11.1012 15.2679C11.4002 15.6012 11.5252 15.987 11.4855 16.4472C11.3349 18.1536 8.96528 20.3651 8.06453 21.073C7.83968 21.25 7.80063 21.5763 7.97749 21.8014C8.07975 21.9317 8.23124 21.9997 8.38532 21.9997C8.49672 21.9997 8.61032 21.963 8.70397 21.8894C8.85128 21.7738 12.2973 19.0435 12.5178 16.5392C12.5841 15.7878 12.3675 15.1276 11.8744 14.5764C11.243 13.8702 10.0493 13.2396 7.95556 14.2447C6.80927 14.794 5.91285 15.591 5.86152 15.6367C5.24555 16.2262 3.26521 17.7384 2.2805 16.9822C2.06615 16.8176 1.95603 16.6185 1.93291 16.3558C1.85537 15.4487 2.81426 14.1428 3.29127 13.5963L4.3537 13.2259C4.3537 13.2259 4.14094 13.2021 3.63996 12.7531C3.1715 12.3321 3.04722 11.877 3.04722 11.877L2.56907 12.8484C2.22853 13.2281 0.773784 14.9468 0.900359 16.4431C0.946762 16.9938 1.20563 17.465 1.64932 17.8052Z" fill="white"/>
</svg>
