<svg width="20" height="20" viewBox="0 0 20 20" fill="none" xmlns="http://www.w3.org/2000/svg">
<path d="M19.7944 3.44128L19.885 3.1881C19.4243 2.79179 19.6232 2.25671 19.6232 2.25671L18.2283 1.41468L18.0909 1.57201C17.7077 1.347 17.2595 1.03497 16.7803 0.600851C15.3934 -0.655753 13.4624 0.083948 12.1743 2.58277C11.8572 3.19812 11.2148 4.39277 10.4273 5.84196L9.9533 5.5904L9.21394 6.98321L9.67327 7.2273C9.4972 7.55017 9.31768 7.8791 9.13542 8.21251L8.61357 7.93538L7.87421 9.32829L8.37801 9.59576C8.16835 9.97833 7.95861 10.3609 7.75058 10.7398L7.21209 10.4539L6.47273 11.8467L6.99193 12.1223C5.48445 14.8638 4.25042 17.0995 4.25042 17.0995C4.25042 17.0995 4.0027 17.6963 3.6311 17.5183C3.25976 17.3402 3.0618 17.1832 3.6311 16.457C4.20067 15.7313 6.04971 13.6095 6.01668 9.28241C6.01668 9.28241 5.95092 8.77989 7.00725 7.94247L0.342522 8.64061C0.342522 8.64061 1.18989 8.9712 1.69104 9.42213C2.28813 9.95909 3.04486 11.9069 1.32789 14.2795C-0.388943 16.6526 -0.256784 18.1045 1.55918 19.2207C3.37523 20.3377 5.95057 20.4214 6.87505 18.3557C7.79961 16.2896 14.0728 2.08021 14.0728 2.08021C14.0728 2.08021 14.568 0.432931 16.5492 1.4661L17.6674 2.05712L17.5101 2.23772L19.7944 3.44128Z" fill="white"/>
</svg>
