<svg width="25" height="13" viewBox="0 0 25 13" fill="none" xmlns="http://www.w3.org/2000/svg">
<path d="M0.851625 12.281C0.611225 12.281 0.409183 12.1992 0.2455 12.0355C0.0818333 11.8718 0 11.6697 0 11.4293V10.8842C0 10.2048 0.350717 9.6605 1.05215 9.2513C1.7536 8.8421 2.67679 8.6375 3.82173 8.6375C3.99553 8.6375 4.16813 8.64276 4.33953 8.65327C4.51093 8.66377 4.67583 8.67754 4.83423 8.69458C4.69691 8.98986 4.59193 9.29422 4.51928 9.60765C4.44662 9.92108 4.4103 10.2549 4.4103 10.6093V12.281H0.851625ZM6.85162 12.281C6.61123 12.281 6.40918 12.1992 6.2455 12.0355C6.08182 11.8718 5.99998 11.6697 5.99998 11.4293V10.6093C5.99998 9.50152 6.55983 8.60429 7.67955 7.91758C8.79925 7.23086 10.263 6.8875 12.0709 6.8875C13.8922 6.8875 15.3596 7.23086 16.4732 7.91758C17.5867 8.60429 18.1435 9.50152 18.1435 10.6093V11.4293C18.1435 11.6697 18.0616 11.8718 17.898 12.0355C17.7343 12.1992 17.5322 12.281 17.2918 12.281H6.85162ZM19.7332 12.281V10.6066C19.7332 10.2554 19.6978 9.92173 19.6272 9.60565C19.5565 9.28957 19.4505 8.9836 19.3092 8.68775C19.4676 8.66693 19.6325 8.65336 19.8039 8.64703C19.9753 8.64067 20.1486 8.6375 20.3238 8.6375C21.459 8.6375 22.3794 8.8421 23.0851 9.2513C23.7907 9.6605 24.1435 10.2048 24.1435 10.8842V11.4293C24.1435 11.6697 24.0616 11.8718 23.898 12.0355C23.7343 12.1992 23.5322 12.281 23.2918 12.281H19.7332ZM3.82025 7.90545C3.32195 7.90545 2.89898 7.73007 2.55135 7.3793C2.2037 7.02853 2.02988 6.6039 2.02988 6.1054C2.02988 5.61158 2.20478 5.18986 2.55458 4.84023C2.90436 4.49059 3.32782 4.31577 3.82495 4.31577C4.32208 4.31577 4.74547 4.49133 5.0951 4.84245C5.44473 5.19355 5.61955 5.61701 5.61955 6.11282C5.61955 6.60862 5.44424 7.03135 5.09363 7.381C4.74301 7.73063 4.31855 7.90545 3.82025 7.90545ZM20.3202 7.90545C19.822 7.90545 19.399 7.73007 19.0514 7.3793C18.7037 7.02853 18.5299 6.6039 18.5299 6.1054C18.5299 5.61158 18.7048 5.18986 19.0546 4.84023C19.4044 4.49059 19.8278 4.31577 20.325 4.31577C20.8221 4.31577 21.2455 4.49133 21.5951 4.84245C21.9447 5.19355 22.1196 5.61701 22.1196 6.11282C22.1196 6.60862 21.9442 7.03135 21.5936 7.381C21.243 7.73063 20.8186 7.90545 20.3202 7.90545ZM12.0717 6.1435C11.2185 6.1435 10.4932 5.84486 9.8959 5.24758C9.29862 4.65029 8.99998 3.92502 8.99998 3.07175C8.99998 2.21848 9.29862 1.49321 9.8959 0.895924C10.4932 0.298641 11.2185 0 12.0717 0C12.925 0 13.6503 0.298641 14.2476 0.895924C14.8448 1.49321 15.1435 2.21848 15.1435 3.07175C15.1435 3.92502 14.8448 4.65029 14.2476 5.24758C13.6503 5.84486 12.925 6.1435 12.0717 6.1435Z" fill="#ffffff"/>
</svg>
