<svg width="48" height="48" viewBox="0 0 48 48" fill="none" xmlns="http://www.w3.org/2000/svg">
<path d="M39.85 15.1L33.25 8.50005L35.15 6.55005C35.8167 5.88338 36.6333 5.55005 37.6 5.55005C38.5667 5.55005 39.4333 5.90005 40.2 6.60005L41.85 8.20005C42.6167 8.93338 42.9583 9.78338 42.875 10.75C42.7917 11.7167 42.4167 12.5334 41.75 13.2L39.85 15.1ZM8.1 42.6C7.43333 42.6 6.875 42.375 6.425 41.925C5.975 41.475 5.75 40.9167 5.75 40.25V36.95C5.75 36.65 5.80833 36.3584 5.925 36.075C6.04167 35.7917 6.21667 35.5334 6.45 35.3L31.15 10.6L37.8 17.15L13.1 41.9001C12.8333 42.1334 12.5583 42.3084 12.275 42.425C11.9917 42.5417 11.7 42.6 11.4 42.6H8.1Z" fill="#3E3E3E"/>
</svg>
