<svg width="32" height="32" viewBox="0 0 32 32" fill="none" xmlns="http://www.w3.org/2000/svg">
<path d="M2.18966 27.8125C1.80444 27.8125 1.48154 27.6804 1.22095 27.4162C0.96037 27.1519 0.830078 26.8267 0.830078 26.4405C0.830078 26.0543 0.96037 25.7316 1.22095 25.4723C1.48154 25.213 1.80444 25.0833 2.18966 25.0833H9.98133C10.3641 25.0833 10.688 25.2148 10.9532 25.4777C11.2183 25.7406 11.3509 26.0665 11.3509 26.4551C11.3509 26.8413 11.2183 27.1641 10.9532 27.4235C10.688 27.6828 10.3641 27.8125 9.98133 27.8125H2.18966ZM2.18966 6.91666C1.80444 6.91666 1.48154 6.7852 1.22095 6.52228C0.96037 6.25934 0.830078 5.93354 0.830078 5.54487C0.830078 5.15868 0.96037 4.8359 1.22095 4.57654C1.48154 4.31717 1.80444 4.18749 2.18966 4.18749H16.898C17.2807 4.18749 17.6047 4.31961 17.8698 4.58383C18.135 4.84808 18.2676 5.17329 18.2676 5.55945C18.2676 5.94565 18.135 6.2684 17.8698 6.5277C17.6047 6.78701 17.2807 6.91666 16.898 6.91666H2.18966ZM15.0957 31.2292C14.7115 31.2292 14.388 31.0977 14.1254 30.8349C13.8627 30.5721 13.7313 30.247 13.7313 29.8596V22.9846C13.7313 22.5994 13.8644 22.2765 14.1306 22.0159C14.3967 21.7553 14.7219 21.625 15.1061 21.625C15.4903 21.625 15.8121 21.7553 16.0715 22.0159C16.3308 22.2765 16.4605 22.5994 16.4605 22.9846V25.0833H29.8092C30.1945 25.0833 30.5174 25.2148 30.778 25.4777C31.0385 25.7406 31.1688 26.0665 31.1688 26.4551C31.1688 26.8413 31.0385 27.1641 30.778 27.4235C30.5174 27.6828 30.1945 27.8125 29.8092 27.8125H16.4605V29.8596C16.4605 30.247 16.3297 30.5721 16.0681 30.8349C15.8065 31.0977 15.4824 31.2292 15.0957 31.2292ZM9.97612 20.7762C9.59193 20.7762 9.27015 20.646 9.01079 20.3854C8.75143 20.1248 8.62175 19.8019 8.62175 19.4167V17.3596H2.18966C1.80444 17.3596 1.48154 17.2288 1.22095 16.9672C0.96037 16.7056 0.830078 16.3815 0.830078 15.9948C0.830078 15.6081 0.96037 15.2857 1.22095 15.0276C1.48154 14.7695 1.80444 14.6404 2.18966 14.6404H8.62175V12.5C8.62175 12.1148 8.75254 11.7919 9.01412 11.5313C9.2757 11.2707 9.59984 11.1404 9.98654 11.1404C10.3708 11.1404 10.6942 11.2707 10.9569 11.5313C11.2196 11.7919 11.3509 12.1148 11.3509 12.5V19.4167C11.3509 19.8019 11.2178 20.1248 10.9517 20.3854C10.6855 20.646 10.3603 20.7762 9.97612 20.7762ZM15.1009 17.3596C14.7182 17.3596 14.3942 17.2288 14.1291 16.9672C13.8639 16.7056 13.7313 16.3815 13.7313 15.9948C13.7313 15.6081 13.8639 15.2857 14.1291 15.0276C14.3942 14.7695 14.7182 14.6404 15.1009 14.6404H29.8092C30.1945 14.6404 30.5174 14.7712 30.778 15.0328C31.0385 15.2944 31.1688 15.6185 31.1688 16.0052C31.1688 16.3919 31.0385 16.7143 30.778 16.9724C30.5174 17.2305 30.1945 17.3596 29.8092 17.3596H15.1009ZM22.0124 10.375C21.6281 10.375 21.3047 10.2447 21.042 9.98412C20.7793 9.72351 20.648 9.40061 20.648 9.01541V2.14041C20.648 1.75302 20.7811 1.42791 21.0472 1.16508C21.3134 0.902244 21.6386 0.770828 22.0228 0.770828C22.407 0.770828 22.7288 0.902244 22.9881 1.16508C23.2475 1.42791 23.3772 1.75302 23.3772 2.14041V4.18749H29.8092C30.1945 4.18749 30.5174 4.31961 30.778 4.58383C31.0385 4.84808 31.1688 5.17329 31.1688 5.55945C31.1688 5.94565 31.0385 6.2684 30.778 6.5277C30.5174 6.78701 30.1945 6.91666 29.8092 6.91666H23.3772V9.01541C23.3772 9.40061 23.2464 9.72351 22.9848 9.98412C22.7232 10.2447 22.3991 10.375 22.0124 10.375Z" fill="#3E3E3E"/>
</svg>
