<svg width="41" height="33" viewBox="0 0 41 33" fill="none" xmlns="http://www.w3.org/2000/svg">
<path d="M3.4065 32.6098C2.48653 32.6098 1.68878 32.2721 1.01325 31.5966C0.33775 30.921 0 30.1233 0 29.2033V3.4185C0 2.49527 0.33775 1.69472 1.01325 1.01685C1.68878 0.338952 2.48653 0 3.4065 0H37.1913C38.1145 0 38.9151 0.338952 39.593 1.01685C40.2709 1.69472 40.6098 2.49527 40.6098 3.4185V29.2033C40.6098 30.1233 40.2709 30.921 39.593 31.5966C38.9151 32.2721 38.1145 32.6098 37.1913 32.6098H3.4065ZM20.2989 17.2457C20.4815 17.2457 20.6411 17.2187 20.7777 17.1647C20.9143 17.1107 21.0618 17.0422 21.2201 16.9592L36.6435 6.8294C36.8101 6.73337 36.9431 6.59305 37.0424 6.40845C37.1417 6.22385 37.1913 6.01854 37.1913 5.7925C37.1913 5.32437 36.9797 4.95062 36.5565 4.67125C36.1333 4.39188 35.7018 4.40149 35.262 4.70005L20.2989 14.3185L5.38585 4.70005C4.94602 4.40945 4.50617 4.3888 4.0663 4.6381C3.62643 4.88737 3.4065 5.25594 3.4065 5.7438C3.4065 5.96664 3.46447 6.17628 3.5804 6.37275C3.69637 6.56922 3.82575 6.72168 3.96855 6.83015L19.3779 16.9593C19.5361 17.0423 19.6835 17.1107 19.8201 17.1647C19.9567 17.2187 20.1163 17.2457 20.2989 17.2457Z" fill="#ffffff"/>
</svg>
