<svg width="30" height="28" viewBox="0 0 30 28" fill="none" xmlns="http://www.w3.org/2000/svg">
<g clip-path="url(#clip0_1323_1011)">
<path d="M19.4671 0.617431C19.2947 0.831137 19.3316 0.927086 19.6083 0.994377C19.6886 1.01408 19.7561 1.03085 19.7555 1.0334C19.7574 1.03653 19.4553 1.31482 19.4533 1.31169C19.4524 1.31013 19.4511 1.2829 19.4485 1.24999C19.4426 1.17595 19.3755 1.02734 19.3185 0.963145C19.281 0.923614 19.2596 0.917368 19.1992 0.926444C19.0677 0.948914 18.9042 1.12696 18.9169 1.23351C18.9256 1.30148 19.022 1.36524 19.1851 1.40522C19.2552 1.42258 19.3118 1.43956 19.3106 1.44466C19.3083 1.44819 19.2345 1.52153 19.1435 1.60978C18.9956 1.75235 18.9314 1.79826 18.9595 1.74005C18.9754 1.70869 18.9244 1.56104 18.8676 1.46863C18.8282 1.40442 18.8058 1.38584 18.752 1.37355C18.6906 1.35951 18.6784 1.36481 18.589 1.43053C18.4804 1.50803 18.4086 1.6276 18.425 1.69732C18.4388 1.75568 18.5659 1.82646 18.7089 1.8551C18.7786 1.86835 18.8369 1.88435 18.8407 1.89062C18.8446 1.89688 18.7877 1.96198 18.7139 2.03532C18.6418 2.10768 18.576 2.17612 18.5683 2.18514C18.5584 2.19768 18.543 2.17263 18.5196 2.0986C18.4675 1.93861 18.4166 1.86638 18.3401 1.84217C18.2835 1.82519 18.2646 1.8303 18.1879 1.8774C18.085 1.94274 17.9991 2.06448 18.004 2.13696C18.0067 2.21296 18.0883 2.27066 18.2534 2.31378C18.3312 2.3329 18.3939 2.35261 18.3933 2.35516C18.3936 2.35928 18.3272 2.43026 18.2483 2.51321C18.1052 2.66361 18.0617 2.68598 18.0763 2.60585C18.0852 2.54864 18.013 2.35576 17.9608 2.2994C17.8938 2.2262 17.8308 2.22392 17.7263 2.29024C17.5899 2.37619 17.5108 2.51967 17.5579 2.59641C17.5896 2.64809 17.7324 2.71572 17.8478 2.73538C17.9998 2.76069 17.9985 2.77655 17.8267 2.95539C17.744 3.04285 17.6699 3.11208 17.6613 3.10875C17.6536 3.107 17.6475 3.08272 17.6494 3.05352C17.6512 2.97046 17.5681 2.77779 17.5053 2.72575C17.4425 2.67371 17.3965 2.67396 17.307 2.7289C17.1568 2.82113 17.0793 2.96363 17.1322 3.04976C17.1639 3.10144 17.4084 3.20579 17.4615 3.1883C17.4787 3.18417 17.5072 3.19472 17.5245 3.21213C17.555 3.24736 17.5559 3.24893 17.416 3.38659C17.3237 3.47994 17.244 3.66906 17.2458 3.79737C17.2469 3.8959 17.2995 4.01025 17.3834 4.09674C17.419 4.13314 17.419 4.14392 17.3842 4.21271C17.3632 4.25367 17.3485 4.30149 17.354 4.31755C17.3595 4.3336 17.2673 4.54546 17.1506 4.78536C17.0349 5.02682 16.8563 5.39529 16.7549 5.60637C16.6541 5.81491 16.561 6.00365 16.5485 6.02639C16.5377 6.04815 16.4691 6.1873 16.398 6.33665C16.0211 7.131 15.8169 7.54749 15.7978 7.55927C15.785 7.56712 15.7748 7.58632 15.7761 7.60278C15.7774 7.61923 15.6349 7.92458 15.4614 8.28345C15.2879 8.64231 15.0994 9.0341 15.0404 9.1566C14.983 9.27811 14.8628 9.52663 14.7741 9.70832C14.6864 9.89157 14.5726 10.1254 14.5222 10.2297C14.4718 10.3339 14.3385 10.6077 14.2285 10.837C14.1194 11.0679 14.0199 11.2606 14.0103 11.2665C14.0007 11.2724 13.988 11.3018 13.9794 11.3308C13.9717 11.3613 13.9121 11.4972 13.8452 11.6353C13.7466 11.8403 13.3767 12.5959 13.3183 12.7158C13.3024 12.7472 13.2277 12.9052 13.0348 13.3148C12.9809 13.4277 12.934 13.5233 12.9308 13.5253C12.9261 13.5282 12.8855 13.6092 12.8422 13.707C12.7507 13.9055 12.7593 13.8981 12.4598 14.0194C12.1603 14.1408 11.9796 14.1655 11.7963 14.1142C11.636 14.0681 11.5549 13.9971 11.429 13.7919C11.3097 13.5977 11.2602 13.4491 11.2491 13.2554C11.2399 13.0971 11.2701 12.9492 11.4216 12.4291C11.4961 12.1742 11.5062 12.1119 11.4961 11.9843C11.4633 11.6012 11.2224 11.3631 10.8556 11.3533C10.6733 11.3466 10.5131 11.3975 10.353 11.5131C9.75521 11.9405 9.37461 12.625 9.1873 13.6135C9.15332 13.7875 9.08011 14.2702 9.02409 14.6842C8.92691 15.4038 8.84569 15.87 8.79725 15.9989C8.76539 16.0832 8.63517 16.2796 8.53682 16.3917C8.32735 16.6347 8.10885 16.8271 7.69702 17.1382C6.86441 17.7638 6.22243 18.3952 5.76629 19.0355C5.5039 19.4037 5.39898 19.6234 5.35141 19.9114C5.19822 20.8229 5.48222 21.7225 6.13917 22.4125C6.42521 22.7135 6.84204 23.0053 7.49949 23.3629C9.40302 24.4025 11.0852 24.9525 12.0471 24.8493C12.3944 24.8128 12.6923 24.7032 13.0684 24.4701C13.3401 24.3033 13.4682 24.1966 13.6562 23.9797C13.8641 23.7378 14.0919 23.3348 14.2107 22.9944C14.4264 22.3746 14.5693 21.4284 14.5514 20.7256C14.535 20.0218 14.7188 19.4647 15.1606 18.8763C15.3288 18.6522 15.5054 18.4597 15.9791 17.9769C16.3821 17.5655 16.4942 17.4363 16.6222 17.2326C16.8401 16.8852 16.8956 16.56 16.7874 16.2512C16.7444 16.1309 16.5915 15.8819 16.4893 15.7657C16.39 15.6541 16.2988 15.6239 16.121 15.6425C15.8575 15.6684 15.6964 15.7716 15.3966 16.1002C15.2493 16.2618 15.2148 16.2916 15.0423 16.3976C14.8835 16.4973 14.8301 16.5214 14.7271 16.5437C14.4992 16.5952 14.3011 16.5702 14.0944 16.4664C13.9696 16.4028 13.7502 16.2248 13.7281 16.1672C13.7178 16.1434 13.8179 15.8943 14.0302 15.4123C14.2049 15.0161 14.357 14.6725 14.3685 14.6482C14.38 14.6239 14.4594 14.4414 14.5451 14.2443C14.6299 14.0456 14.708 13.879 14.716 13.8741C14.724 13.8691 14.7409 13.8286 14.7533 13.7843C14.7705 13.7263 15.3593 12.3705 15.535 11.9865C15.572 11.9034 15.7735 11.4433 15.8315 11.3084C15.8596 11.2395 15.9236 11.0966 15.9705 10.9902C16.019 10.8828 16.3085 10.2219 16.6164 9.51949C16.9238 8.81963 17.1884 8.23657 17.2076 8.22479C17.2252 8.214 17.2338 8.19577 17.2261 8.18324C17.2126 8.16132 17.5088 7.45755 17.5375 7.43989C17.5455 7.43498 17.5531 7.41519 17.5566 7.39579C17.5617 7.36464 17.8346 6.72692 17.8834 6.6344C17.892 6.61618 17.9765 6.42411 18.0715 6.20618C18.1665 5.98824 18.25 5.79461 18.2596 5.77795C18.2682 5.75972 18.3591 5.55296 18.4611 5.31778C18.5806 5.03949 18.6549 4.88818 18.6719 4.89071C18.7058 4.89576 18.7788 4.728 18.7567 4.69198C18.7432 4.67005 18.7614 4.65671 18.9276 4.56545C19.1012 4.47182 19.324 4.38677 19.6229 4.30026L19.7482 4.26428L19.8277 4.11414C19.954 3.86835 20.0446 3.52153 20.1426 2.91788C20.1708 2.73449 20.2181 2.47468 20.2445 2.34204L20.294 2.10025L20.3433 2.13037C20.5239 2.24164 20.8637 2.15372 21.0633 1.94488C21.215 1.78702 21.2788 1.61849 21.2593 1.42555C21.2486 1.32213 21.2364 1.29511 21.1268 1.11658C20.9517 0.83154 20.7862 0.68734 20.5785 0.635844C20.4138 0.596841 20.36 0.606105 20.1779 0.717956C20.09 0.77192 19.9916 0.840978 19.9597 0.871376L19.8996 0.927661L19.8941 0.857732C19.8908 0.816599 19.86 0.73416 19.818 0.65859C19.7551 0.541904 19.7423 0.528204 19.6956 0.520223C19.6438 0.511071 19.5044 0.570769 19.4671 0.617431Z" fill="#3E3E3E"/>
</g>
<defs>
<clipPath id="clip0_1323_1011">
<rect width="24" height="17" fill="white" transform="translate(0 12.5586) rotate(-31.5528)"/>
</clipPath>
</defs>
</svg>
