<svg width="33" height="41" viewBox="0 0 33 41" fill="none" xmlns="http://www.w3.org/2000/svg">
<path d="M1.70325 34.6098C1.21412 34.6098 0.80795 34.4482 0.48475 34.1251C0.161583 33.8019 0 33.3957 0 32.9065C0 32.4174 0.161583 32.0112 0.48475 31.688C0.80795 31.3649 1.21412 31.2033 1.70325 31.2033H3.89235V16.3022C3.89235 13.4329 4.7313 10.8534 6.4092 8.5638C8.0871 6.2742 10.3159 4.8341 13.0956 4.2435V3.21525C13.0956 2.31882 13.4063 1.55883 14.0275 0.9353C14.6486 0.311766 15.4058 0 16.2989 0C17.192 0 17.9492 0.311766 18.5704 0.9353C19.1916 1.55883 19.5022 2.31882 19.5022 3.21525V4.2435C22.2819 4.8261 24.5127 6.2636 26.1945 8.556C27.8765 10.8484 28.7174 13.4305 28.7174 16.3022V31.2033H30.8946C31.3827 31.2033 31.7906 31.3649 32.1182 31.688C32.4459 32.0112 32.6098 32.4174 32.6098 32.9065C32.6098 33.3957 32.4459 33.8019 32.1182 34.1251C31.7906 34.4482 31.3827 34.6098 30.8946 34.6098H1.70325ZM16.3049 40.7175C15.177 40.7175 14.2114 40.3162 13.4081 39.5136C12.6049 38.711 12.2033 37.7431 12.2033 36.6098H20.4065C20.4065 37.7417 20.0049 38.7093 19.2016 39.5126C18.3984 40.3158 17.4328 40.7175 16.3049 40.7175Z" fill="#3E3E3E"/>
</svg>
