<svg width="41" height="25" viewBox="0 0 26 25" fill="none" xmlns="http://www.w3.org/2000/svg">
<path d="M22.9062 24.8662C20.3646 24.8662 17.7917 24.262 15.1875 23.0537C12.5833 21.8454 10.1771 20.137 7.96875 17.9287C5.73958 15.6995 4.01562 13.2777 2.79688 10.6631C1.57812 8.0485 0.96875 5.48079 0.96875 2.95996C0.96875 2.35579 1.17708 1.84017 1.59375 1.41309C2.01042 0.986003 2.52083 0.772461 3.125 0.772461H7.5C8.14583 0.772461 8.67188 0.944336 9.07812 1.28809C9.48438 1.63184 9.76042 2.12663 9.90625 2.77246L10.75 6.20996C10.8333 6.75163 10.8177 7.23079 10.7031 7.64746C10.5885 8.06413 10.3646 8.41829 10.0312 8.70996L6.78125 11.6787C7.23958 12.4287 7.72917 13.137 8.25 13.8037C8.77083 14.4704 9.36458 15.1162 10.0312 15.7412C10.7188 16.4704 11.4115 17.1058 12.1094 17.6475C12.8073 18.1891 13.5208 18.6475 14.25 19.0225L17.375 15.8662C17.7292 15.4912 18.125 15.2412 18.5625 15.1162C19 14.9912 19.4688 14.9912 19.9688 15.1162L23.0625 15.835C23.7083 16.0225 24.2031 16.3245 24.5469 16.7412C24.8906 17.1579 25.0625 17.6787 25.0625 18.3037V22.71C25.0625 23.3141 24.849 23.8245 24.4219 24.2412C23.9948 24.6579 23.4896 24.8662 22.9062 24.8662Z" fill="#3E3E3E"/>
</svg>
