<svg width="40" height="42" viewBox="0 0 40 42" fill="none" xmlns="http://www.w3.org/2000/svg">
<path d="M23.3724 41.2993H16.6289C16.2065 41.2993 15.8316 41.1667 15.5045 40.9015C15.1773 40.6362 14.9804 40.2924 14.9137 39.8699L14.1257 34.9036C13.5402 34.6942 12.9154 34.3995 12.2512 34.0194C11.5871 33.6393 11.0083 33.2485 10.5148 32.8471L5.94852 34.9732C5.53402 35.1638 5.11752 35.1908 4.69902 35.0542C4.28056 34.9176 3.95937 34.642 3.73547 34.2276L0.351774 28.2221C0.119874 27.8409 0.0599072 27.4411 0.171874 27.0227C0.283807 26.6042 0.509707 26.2623 0.849573 25.9971L5.07782 22.9069C5.01912 22.6308 4.98144 22.313 4.96477 21.9536C4.94811 21.5942 4.93977 21.2765 4.93977 21.0004C4.93977 20.7243 4.94811 20.4065 4.96477 20.0471C4.98144 19.6877 5.01912 19.3699 5.07782 19.0939L0.849573 15.9917C0.50974 15.7265 0.28384 15.3846 0.171874 14.9661C0.0599072 14.5476 0.119874 14.1518 0.351774 13.7786L3.73547 7.77315C3.96734 7.37462 4.29251 7.10505 4.71097 6.96445C5.12947 6.82389 5.54199 6.84889 5.94852 7.03945L10.5387 9.1536C11.0242 8.76014 11.597 8.37536 12.2572 7.99926C12.9173 7.62319 13.5402 7.34312 14.1257 7.15905L14.9137 2.11885C14.9804 1.69639 15.1773 1.35254 15.5045 1.0873C15.8316 0.822071 16.2065 0.689453 16.6289 0.689453H23.3724C23.7949 0.689453 24.1697 0.822071 24.4969 1.0873C24.824 1.35254 25.021 1.69639 25.0876 2.11885L25.8757 7.10905C26.4612 7.32645 27.0923 7.61486 27.7692 7.97426C28.446 8.33369 29.0184 8.7268 29.4865 9.1536L34.0528 7.03945C34.4594 6.84889 34.8739 6.82191 35.2963 6.95851C35.7188 7.09511 36.042 7.36665 36.2659 7.77315L39.6616 13.7286C39.8934 14.1098 39.9597 14.5179 39.8605 14.9531C39.7612 15.3882 39.525 15.7344 39.1518 15.9917L34.9116 18.9939C34.9702 19.3033 35.0099 19.6377 35.0306 19.9971C35.0512 20.3565 35.0616 20.6909 35.0616 21.0004C35.0616 21.3098 35.0512 21.6359 35.0306 21.9786C35.0099 22.3214 34.9702 22.6475 34.9116 22.9569L39.1518 25.9971C39.4916 26.2623 39.7175 26.6042 39.8295 27.0227C39.9414 27.4411 39.8855 27.8409 39.6616 28.2221L36.2539 34.2276C36.03 34.642 35.7108 34.9176 35.2963 35.0542C34.8818 35.1908 34.4673 35.1638 34.0528 34.9732L29.4746 32.8471C28.9811 33.2485 28.4126 33.6456 27.7692 34.0384C27.1257 34.4312 26.4945 34.7196 25.8757 34.9036L25.0876 39.8699C25.021 40.2924 24.824 40.6362 24.4969 40.9014C24.1697 41.1666 23.7949 41.2993 23.3724 41.2993ZM19.9768 27.5004C21.7768 27.5004 23.3101 26.867 24.5768 25.6004C25.8434 24.3337 26.4768 22.8004 26.4768 21.0004C26.4768 19.2004 25.8434 17.667 24.5768 16.4004C23.3101 15.1337 21.7768 14.5004 19.9768 14.5004C18.1768 14.5004 16.6434 15.1337 15.3768 16.4004C14.1101 17.667 13.4768 19.2004 13.4768 21.0004C13.4768 22.8004 14.1101 24.3337 15.3768 25.6004C16.6434 26.867 18.1768 27.5004 19.9768 27.5004Z" fill="#2C2A2B"/>
</svg>
