<svg width="19" height="17" viewBox="0 0 19 17" fill="none" xmlns="http://www.w3.org/2000/svg">
<path d="M2.14153 1.70925C1.90113 1.70925 1.69908 1.62699 1.5354 1.46248C1.37173 1.29796 1.2899 1.09487 1.2899 0.853224C1.2899 0.611591 1.37173 0.408975 1.5354 0.245375C1.69908 0.0817917 1.90113 0 2.14153 0H16.4415C16.6819 0 16.884 0.0832575 17.0477 0.249774C17.2113 0.416291 17.2932 0.620366 17.2932 0.862C17.2932 1.10365 17.2113 1.30527 17.0477 1.46685C16.884 1.62845 16.6819 1.70925 16.4415 1.70925H2.14153ZM2.26653 16.0875C2.02613 16.0875 1.82408 16.0057 1.6604 15.842C1.49673 15.6783 1.4149 15.4763 1.4149 15.2359V9.96253H0.813801C0.550251 9.95056 0.338076 9.84095 0.177276 9.6337C0.0164756 9.42647 -0.0349327 9.19423 0.0230507 8.93698L1.14098 3.88698C1.17829 3.68371 1.27567 3.51994 1.4331 3.39567C1.59053 3.27139 1.7687 3.20925 1.9676 3.20925H16.5905C16.7894 3.20925 16.9675 3.27139 17.125 3.39567C17.2824 3.51994 17.3798 3.68371 17.4171 3.88698L18.535 8.93698C18.593 9.19821 18.5406 9.43444 18.3778 9.64567C18.215 9.85691 18.0058 9.96253 17.7502 9.96253H17.1432V15.2359C17.1432 15.4763 17.0609 15.6783 16.8964 15.842C16.7319 16.0057 16.5288 16.0875 16.2872 16.0875C16.0455 16.0875 15.8439 16.0057 15.6823 15.842C15.5207 15.6783 15.4399 15.4763 15.4399 15.2359V9.96253H11.1682V15.2359C11.1682 15.4763 11.0863 15.6783 10.9227 15.842C10.759 16.0057 10.5569 16.0875 10.3165 16.0875H2.26653ZM3.11815 14.3842H9.4649V9.96253H3.11815V14.3842Z" fill="black"/>
</svg>
