<svg width="41" height="41" viewBox="0 0 28 28" fill="none" xmlns="http://www.w3.org/2000/svg">
<path d="M14.0013 27.1686C12.1346 27.1686 10.3902 26.8186 8.76797 26.1186C7.14575 25.4186 5.73464 24.4686 4.53464 23.2686C3.33464 22.0686 2.39019 20.652 1.7013 19.0186C1.01241 17.3853 0.667969 15.6353 0.667969 13.7686C0.667969 11.902 1.01241 10.1631 1.7013 8.55195C2.39019 6.94084 3.33464 5.53529 4.53464 4.33529C5.73464 3.13529 7.14575 2.1964 8.76797 1.51862C10.3902 0.840842 12.1346 0.501953 14.0013 0.501953C15.868 0.501953 17.6124 0.840842 19.2346 1.51862C20.8569 2.1964 22.268 3.13529 23.468 4.33529C24.668 5.53529 25.6124 6.94084 26.3013 8.55195C26.9902 10.1631 27.3346 11.902 27.3346 13.7686C27.3346 15.6353 26.9902 17.3853 26.3013 19.0186C25.6124 20.652 24.668 22.0686 23.468 23.2686C22.268 24.4686 20.8569 25.4186 19.2346 26.1186C17.6124 26.8186 15.868 27.1686 14.0013 27.1686ZM14.0013 25.2353C14.7791 24.4353 15.4291 23.5186 15.9513 22.4853C16.4735 21.452 16.9013 20.2242 17.2346 18.802H10.8013C11.1124 20.1353 11.5291 21.3353 12.0513 22.402C12.5735 23.4686 13.2235 24.4131 14.0013 25.2353ZM11.168 24.8353C10.6124 23.9908 10.1346 23.0797 9.73463 22.102C9.33463 21.1242 9.0013 20.0242 8.73464 18.802H3.73464C4.57908 20.3797 5.55686 21.6186 6.66797 22.5186C7.77908 23.4186 9.27908 24.1908 11.168 24.8353ZM16.868 24.802C18.468 24.2908 19.9069 23.5242 21.1846 22.502C22.4624 21.4797 23.4902 20.2464 24.268 18.802H19.3013C19.0124 20.002 18.6735 21.0908 18.2846 22.0686C17.8957 23.0464 17.4235 23.9575 16.868 24.802ZM3.06797 16.802H8.36797C8.3013 16.202 8.26241 15.6631 8.2513 15.1853C8.24019 14.7075 8.23463 14.2353 8.23463 13.7686C8.23463 13.2131 8.24575 12.7186 8.26797 12.2853C8.29019 11.852 8.33463 11.3686 8.4013 10.8353H3.06797C2.91241 11.3686 2.80686 11.8464 2.7513 12.2686C2.69575 12.6908 2.66797 13.1908 2.66797 13.7686C2.66797 14.3464 2.69575 14.8631 2.7513 15.3186C2.80686 15.7742 2.91241 16.2686 3.06797 16.802ZM10.4346 16.802H17.6013C17.6902 16.1131 17.7457 15.552 17.768 15.1186C17.7902 14.6853 17.8013 14.2353 17.8013 13.7686C17.8013 13.3242 17.7902 12.8964 17.768 12.4853C17.7457 12.0742 17.6902 11.5242 17.6013 10.8353H10.4346C10.3457 11.5242 10.2902 12.0742 10.268 12.4853C10.2457 12.8964 10.2346 13.3242 10.2346 13.7686C10.2346 14.2353 10.2457 14.6853 10.268 15.1186C10.2902 15.552 10.3457 16.1131 10.4346 16.802ZM19.6013 16.802H24.9346C25.0902 16.2686 25.1957 15.7742 25.2513 15.3186C25.3069 14.8631 25.3346 14.3464 25.3346 13.7686C25.3346 13.1908 25.3069 12.6908 25.2513 12.2686C25.1957 11.8464 25.0902 11.3686 24.9346 10.8353H19.6346C19.7013 11.6131 19.7457 12.2075 19.768 12.6186C19.7902 13.0297 19.8013 13.4131 19.8013 13.7686C19.8013 14.2575 19.7846 14.7186 19.7513 15.152C19.718 15.5853 19.668 16.1353 19.6013 16.802ZM19.268 8.83529H24.268C23.5346 7.30195 22.5291 6.02418 21.2513 5.00195C19.9735 3.97973 18.5013 3.25751 16.8346 2.83529C17.3902 3.65751 17.8624 4.5464 18.2513 5.50195C18.6402 6.45751 18.9791 7.56862 19.268 8.83529ZM10.8013 8.83529H17.268C17.0235 7.65751 16.6124 6.51862 16.0346 5.41862C15.4569 4.31862 14.7791 3.3464 14.0013 2.50195C13.2902 3.10195 12.6902 3.89084 12.2013 4.86862C11.7124 5.8464 11.2457 7.16862 10.8013 8.83529ZM3.73464 8.83529H8.76797C9.01241 7.63529 9.32352 6.56306 9.7013 5.61862C10.0791 4.67418 10.5569 3.75751 11.1346 2.86862C9.46797 3.29084 8.01241 4.00195 6.76797 5.00195C5.52352 6.00195 4.51241 7.27973 3.73464 8.83529Z" fill="#3E3E3E"/>
</svg>
