<svg width="54" height="54" viewBox="0 0 54 54" fill="none" xmlns="http://www.w3.org/2000/svg">
<g clip-path="url(#clip0_1595_1033)">
<path d="M16.5242 18.3794C16.9654 15.751 17.6454 14.0601 18.7299 14.0601C19.5937 14.0601 20.7333 15.1077 22.0567 16.8171C22.5713 17.4971 23.1227 18.2691 23.6741 19.133C21.395 20.1623 19.6121 22.1106 18.785 24.5C17.8476 24.0772 11.0653 21.0261 8.98839 20.2542C5.62483 20.9342 3.36407 20.9526 3.40083 19.6476C3.43759 18.5448 5.73511 19.0411 8.98839 20.2542C11.1572 19.8314 16.5242 18.3794 16.5242 18.3794Z" fill="#10ACDD"/>
<path d="M27.9554 15.2549C27.8451 16.2842 27.7165 17.3135 27.5878 18.3244C30.2161 18.3612 32.5688 19.5007 34.2046 21.302C34.8479 20.4933 35.4361 19.7397 35.914 19.0412C37.1455 17.2584 37.7888 15.8615 37.5131 15.0344C37.1822 14.0051 35.3626 13.8764 32.7158 14.2624C31.1352 11.873 29.6647 9.61224 28.5987 7.7007C28.7457 4.24524 28.5068 1.89258 27.4407 2.20504C26.1909 2.57265 26.9077 4.70474 28.5987 7.7007C28.5068 9.90632 28.2495 12.5531 27.9554 15.2549Z" fill="#E37056"/>
<path d="M46.6115 22.4596C49.9567 21.5406 52.1071 20.5848 51.4822 19.6658C50.7286 18.5814 48.9274 19.9415 46.6115 22.4596C44.4978 23.0477 41.8878 23.6175 39.241 24.1689C38.2301 24.3711 37.2192 24.5733 36.2083 24.7755C36.4656 25.6209 36.6127 26.5216 36.6127 27.459C36.6127 29.1132 36.1716 30.6571 35.418 31.9805C36.3737 32.3481 37.2744 32.6605 38.1015 32.8995C40.1784 33.5244 41.704 33.6898 42.4024 33.1936C43.2847 32.5503 42.8252 30.7858 41.6488 28.3963C43.4133 26.154 45.1043 24.077 46.6115 22.4596Z" fill="#FF8514"/>
<path d="M30.9333 41.2443C31.9442 40.2518 33.047 39.0203 34.2233 37.6418C33.7087 36.7412 33.2124 35.8406 32.6978 34.9399C31.209 35.9876 29.3894 36.6125 27.4411 36.6125C26.8161 36.6125 26.1912 36.5574 25.603 36.4287C25.5479 37.458 25.5295 38.4138 25.5479 39.2593C25.603 41.4281 25.8971 42.9353 26.614 43.4499C27.4778 44.0749 29.0218 43.1007 30.9333 41.2443ZM30.9333 41.2443C33.6168 42.2369 36.1349 43.211 38.1199 44.13C40.0314 47.0157 41.6121 48.7802 42.2922 47.8979C43.0825 46.8686 41.2445 45.5637 38.1199 44.13L34.2049 37.6418C33.0654 39.0203 31.9442 40.2518 30.9333 41.2443Z" fill="#E558C6"/>
<path d="M15.6414 29.2973C13.6012 30.0141 12.2594 30.7677 11.9837 31.5948C11.6529 32.6241 13.0498 33.8005 15.4208 35.0319C15.2922 37.8992 15.1451 40.5827 14.8878 42.77C12.7373 45.4718 11.5426 47.5304 12.5903 47.898C13.8218 48.3391 14.4834 46.1887 14.8878 42.77C16.2663 41.0422 18.0308 39.0572 19.8504 37.0537C20.5489 36.3001 21.2473 35.5282 21.9458 34.7746C19.9791 33.3042 18.6374 31.0434 18.3433 28.4702C17.3691 28.7459 16.4501 29.0216 15.6414 29.2973Z" fill="#12C59A"/>
</g>
<defs>
<clipPath id="clip0_1595_1033">
<rect width="53.1002" height="53.1002" fill="white" transform="translate(0.900391 0.899902)"/>
</clipPath>
</defs>
</svg>
